<?xml version="1.0" encoding="UTF-8"?>
<svg width="32" height="32" viewBox="0 0 32 32" version="1.1" xmlns="http://www.w3.org/2000/svg">
    <!-- Capsule bars -->
    <g transform="translate(-1.32,-1.6)">
        <!-- First bar (50-50 split) -->
        <g transform="translate(5.47,11)">
            <!-- Base bar in EU blue -->
            <rect x="0" y="0" width="23.5" height="5.4" rx="2.7" ry="2.7" fill="#003399"/>
            <!-- Grey overlay for the right half -->
            <path d="M12 0h9v5.4h-9z" fill="#5b6880"/>
            <!-- Round the right edge only -->
            <path d="M18.3 0h2.7a2.7 2.7 0 0 1 2.7 2.7v0a2.7 2.7 0 0 1-2.7 2.7h-2.7z" fill="#5b6880"/>
        </g>
        
        <!-- Second bar (80-20 split) -->
        <g transform="translate(5.47,18.8)">
            <!-- Base bar in EU blue -->
            <rect x="0" y="0" width="23.5" height="5.4" rx="2.7" ry="2.7" fill="#003399"/>
            <!-- Grey overlay for the right 20% -->
            <path d="M18.6 0h2v5.4h-2z" fill="#5b6880"/>
            <!-- Round the right edge only -->
            <path d="M18.3 0h2.7a2.7 2.7 0 0 1 2.7 2.7v0a2.7 2.7 0 0 1-2.7 2.7h-2.7z" fill="#5b6880"/>
        </g>
    </g>

    <!-- 12 stars -->
    <g fill="#FFCC00">
        <!-- Using a 5-pointed star path, positioned along the circle -->
        <path d="M16 2 L16.5 3.2 L17.8 3.3 L16.9 4.2 L17.1 5.5 L16 4.9 L14.9 5.5 L15.1 4.2 L14.2 3.3 L15.5 3.2 Z" transform="translate(16 16) scale(1.3) translate(-16 -13.5)"/>
        <path d="M16 2 L16.5 3.2 L17.8 3.3 L16.9 4.2 L17.1 5.5 L16 4.9 L14.9 5.5 L15.1 4.2 L14.2 3.3 L15.5 3.2 Z" transform="translate(16 16) rotate(30) scale(1.3) translate(-16 -13.5)"/>
        <path d="M16 2 L16.5 3.2 L17.8 3.3 L16.9 4.2 L17.1 5.5 L16 4.9 L14.9 5.5 L15.1 4.2 L14.2 3.3 L15.5 3.2 Z" transform="translate(16 16) rotate(60) scale(1.3) translate(-16 -13.5)"/>
        <path d="M16 2 L16.5 3.2 L17.8 3.3 L16.9 4.2 L17.1 5.5 L16 4.9 L14.9 5.5 L15.1 4.2 L14.2 3.3 L15.5 3.2 Z" transform="translate(16 16) rotate(90) scale(1.3) translate(-16 -13.5)"/>
        <path d="M16 2 L16.5 3.2 L17.8 3.3 L16.9 4.2 L17.1 5.5 L16 4.9 L14.9 5.5 L15.1 4.2 L14.2 3.3 L15.5 3.2 Z" transform="translate(16 16) rotate(120) scale(1.3) translate(-16 -13.5)"/>
        <path d="M16 2 L16.5 3.2 L17.8 3.3 L16.9 4.2 L17.1 5.5 L16 4.9 L14.9 5.5 L15.1 4.2 L14.2 3.3 L15.5 3.2 Z" transform="translate(16 16) rotate(150) scale(1.3) translate(-16 -13.5)"/>
        <path d="M16 2 L16.5 3.2 L17.8 3.3 L16.9 4.2 L17.1 5.5 L16 4.9 L14.9 5.5 L15.1 4.2 L14.2 3.3 L15.5 3.2 Z" transform="translate(16 16) rotate(180) scale(1.3) translate(-16 -13.5)"/>
        <path d="M16 2 L16.5 3.2 L17.8 3.3 L16.9 4.2 L17.1 5.5 L16 4.9 L14.9 5.5 L15.1 4.2 L14.2 3.3 L15.5 3.2 Z" transform="translate(16 16) rotate(210) scale(1.3) translate(-16 -13.5)"/>
        <path d="M16 2 L16.5 3.2 L17.8 3.3 L16.9 4.2 L17.1 5.5 L16 4.9 L14.9 5.5 L15.1 4.2 L14.2 3.3 L15.5 3.2 Z" transform="translate(16 16) rotate(240) scale(1.3) translate(-16 -13.5)"/>
        <path d="M16 2 L16.5 3.2 L17.8 3.3 L16.9 4.2 L17.1 5.5 L16 4.9 L14.9 5.5 L15.1 4.2 L14.2 3.3 L15.5 3.2 Z" transform="translate(16 16) rotate(270) scale(1.3) translate(-16 -13.5)"/>
        <path d="M16 2 L16.5 3.2 L17.8 3.3 L16.9 4.2 L17.1 5.5 L16 4.9 L14.9 5.5 L15.1 4.2 L14.2 3.3 L15.5 3.2 Z" transform="translate(16 16) rotate(300) scale(1.3) translate(-16 -13.5)"/>
        <path d="M16 2 L16.5 3.2 L17.8 3.3 L16.9 4.2 L17.1 5.5 L16 4.9 L14.9 5.5 L15.1 4.2 L14.2 3.3 L15.5 3.2 Z" transform="translate(16 16) rotate(330) scale(1.3) translate(-16 -13.5)"/>
    </g>
</svg> 